<?xml version="1.0" encoding="utf-8"?>
<!-- Generator: Adobe Illustrator 27.8.1, SVG Export Plug-In . SVG Version: 6.00 Build 0)  -->
<svg version="1.1" id="Layer_1" xmlns="http://www.w3.org/2000/svg" xmlns:xlink="http://www.w3.org/1999/xlink" x="0px" y="0px"
	 viewBox="0 0 818 633" enable-background="new 0 0 818 633" xml:space="preserve">
<g>
	<path fill="#0D3CBF" d="M199.482,93.145c10.915,0,19.763,8.848,19.763,19.763v125.729c0,19.646-0.451,32.34-1.353,38.081
		c-0.903,5.741-4.106,11.816-9.609,18.223c-5.505,6.406-13.168,11.293-22.992,14.663c-9.822,3.368-22.186,5.053-37.085,5.053
		c-18.318,0-33.028-3.109-44.132-9.324c-1.586-0.888-3.063-1.899-4.431-3.032c-13.65-11.311-5.165-33.626,12.562-33.626h16.083
		c6.529,0,12.871,3.127,16.21,8.738c1.503,2.526,3.925,3.789,7.266,3.789c4.364,0,7.261-1.281,8.684-3.848
		c1.424-2.565,2.135-7.933,2.135-16.103v-14.252c-4.936,4.473-10.132,7.852-15.588,10.134c-5.458,2.285-11.175,3.426-17.155,3.426
		c-10.345,0-18.863-2.087-25.553-6.264c-6.691-4.175-11.271-9.656-13.738-16.442c-2.469-6.785-3.702-16.443-3.702-28.971v-68.618
		c0-17.937,3.225-30.843,9.68-38.722c6.453-7.876,16.276-11.816,29.469-11.816c7.211,0,13.785,1.475,19.717,4.422
		c5.93,2.95,11.221,7.371,15.873,13.266v0c2.445-8.453,10.185-14.271,18.984-14.271H199.482z M161.589,143.256
		c0-8.635-0.498-14.14-1.495-16.514c-0.996-2.371-3.203-3.559-6.62-3.559c-3.323,0-5.672,1.353-7.046,4.057
		c-1.377,2.705-2.064,8.043-2.064,16.016v63.493c0,8.448,0.521,13.929,1.566,16.443c1.043,2.516,3.226,3.773,6.549,3.773
		c3.795,0,6.264-1.517,7.403-4.556c1.138-3.036,1.708-9.916,1.708-20.642V143.256z"/>
	<path fill="#0D3CBF" d="M344.949,190.947h-8.542c-22.565,0-40.857,18.292-40.857,40.857v0c0,8.541,0.616,14.047,1.851,16.514
		c1.232,2.469,3.605,3.702,7.118,3.702c4.364,0,7.282-1.637,8.755-4.912c1.47-3.274,2.206-9.61,2.206-19.005v-10.961
		c0-7.705,6.246-13.951,13.951-13.951h26.622c7.705,0,13.951,6.246,13.951,13.951v0c0,11.673-0.736,20.642-2.206,26.906
		c-1.473,6.264-4.912,12.955-10.321,20.073s-12.267,12.457-20.571,16.016c-8.306,3.559-18.72,5.338-31.248,5.338
		c-12.15,0-22.874-1.757-32.174-5.267c-9.302-3.51-16.538-8.328-21.71-14.449c-5.174-6.122-8.755-12.859-10.748-20.215
		c-1.993-7.353-2.99-18.055-2.99-32.102v-55.093c0-16.514,2.229-29.54,6.691-39.078c4.46-9.538,11.767-16.845,21.923-21.924
		c10.155-5.076,21.828-7.616,35.021-7.616c16.133,0,29.444,3.061,39.932,9.182c10.486,6.122,17.842,14.236,22.065,24.344
		c4.222,10.108,6.335,24.322,6.335,42.637v0C370.005,179.729,358.787,190.947,344.949,190.947z M312.349,160.197v-13.809
		c0-9.774-0.523-16.087-1.566-18.934c-1.045-2.847-3.18-4.271-6.406-4.271c-3.986,0-6.455,1.21-7.402,3.63
		c-0.95,2.421-1.424,8.947-1.424,19.575v13.809H312.349z"/>
	<path fill="#0D3CBF" d="M449.441,96.775v0.925h0.57c8.255,0,14.948,6.692,14.948,14.948v0c0,8.256-6.692,14.948-14.948,14.948
		h-0.57v101.076c0,12.434,0.641,19.361,1.922,20.785c0.498,0.554,1.61,1,3.336,1.338c7.312,1.434,12.68,7.686,12.68,15.138v0.749
		c0,8.492-6.884,15.376-15.376,15.376h-7.829c-13.097,0-22.446-0.545-28.045-1.637c-5.601-1.09-10.534-3.606-14.805-7.545
		c-4.271-3.937-6.93-8.446-7.972-13.524c-1.046-5.076-1.566-17.012-1.566-35.804v-95.95l0,0c-6.84,0-12.385-5.545-12.385-12.385
		v-5.126c0-6.84,5.545-12.385,12.385-12.385l0,0v-0.925c0-15.921,12.907-28.828,28.828-28.828h0
		C436.535,67.947,449.441,80.854,449.441,96.775z"/>
	<path fill="#090475" d="M335.058,337.638L335.058,337.638c0,12.737-10.325,23.062-23.062,23.062h-12.528v154.39
		c0,16.55-13.417,29.967-29.967,29.967h0c-16.55,0-29.967-13.417-29.967-29.967v-154.39h-12.385
		c-12.737,0-23.062-10.325-23.062-23.062v0c0-12.737,10.325-23.062,23.062-23.062h84.847
		C324.733,314.576,335.058,324.901,335.058,337.638z"/>
	<path fill="#090475" d="M439.979,453.947h-8.542c-22.565,0-40.857,18.292-40.857,40.857v0c0,8.541,0.615,14.047,1.851,16.514
		c1.232,2.469,3.605,3.702,7.118,3.702c4.365,0,7.282-1.637,8.756-4.912c1.468-3.274,2.206-9.61,2.206-19.005v-10.961
		c0-7.705,6.246-13.951,13.951-13.951h26.622c7.705,0,13.951,6.246,13.951,13.951l0,0c0,11.673-0.737,20.642-2.207,26.906
		c-1.473,6.264-4.911,12.955-10.321,20.073c-5.41,7.118-12.266,12.457-20.57,16.016c-8.307,3.559-18.721,5.338-31.249,5.338
		c-12.149,0-22.873-1.757-32.173-5.267c-9.302-3.51-16.538-8.328-21.71-14.449c-5.174-6.122-8.755-12.859-10.748-20.215
		c-1.993-7.353-2.99-18.055-2.99-32.102v-55.093c0-16.514,2.229-29.54,6.691-39.078c4.46-9.538,11.767-16.845,21.923-21.924
		c10.155-5.076,21.828-7.616,35.021-7.616c16.133,0,29.445,3.061,39.933,9.182c10.485,6.122,17.84,14.236,22.065,24.344
		c4.222,10.108,6.336,24.322,6.336,42.637v0C465.034,442.729,453.817,453.947,439.979,453.947z M407.377,423.197v-13.809
		c0-9.774-0.521-16.087-1.566-18.934c-1.044-2.847-3.18-4.271-6.405-4.271c-3.987,0-6.456,1.21-7.403,3.63
		c-0.95,2.421-1.424,8.947-1.424,19.575v13.809H407.377z"/>
	<path fill="#090475" d="M587.901,427.468h-9.406c-12.029,0-21.781-9.752-21.781-21.781v0c0-7.592-0.618-12.741-1.851-15.447
		c-1.234-2.704-3.512-4.057-6.833-4.057c-3.324,0-5.552,1.188-6.691,3.559c-1.14,2.374-1.709,7.688-1.709,15.945v89.117
		c0,6.74,0.854,11.793,2.562,15.161c1.709,3.37,4.223,5.054,7.545,5.054c3.891,0,6.524-1.755,7.901-5.268
		c1.374-3.51,2.064-10.154,2.064-19.93l0,0c0-12.422,10.07-22.493,22.493-22.493h5.6c12.999,0,23.274,10.993,22.446,23.965
		c-0.246,3.851-0.554,7.181-0.925,9.988c-0.998,7.545-4.178,15.281-9.539,23.204c-5.363,7.925-12.363,13.904-20.997,17.937
		c-8.637,4.032-19.315,6.05-32.031,6.05c-16.229,0-29.09-2.776-38.58-8.328c-9.491-5.552-16.207-13.333-20.143-23.347
		c-3.941-10.011-5.909-24.223-5.909-42.636v-53.67c0-16.037,1.613-28.139,4.84-36.302c3.225-8.161,10.108-15.446,20.643-21.852
		c10.534-6.406,23.348-9.61,38.437-9.61c14.995,0,27.808,3.181,38.438,9.539c10.628,6.359,17.7,14.378,21.212,24.059
		c1.657,4.57,2.924,10.04,3.799,16.409C611.282,415.811,601.101,427.468,587.901,427.468z"/>
	<path fill="#090475" d="M685.55,343.333v23.097c4.933-4.566,10.272-7.992,16.014-10.276c5.742-2.282,11.888-3.426,18.437-3.426
		c10.058,0,18.624,2.563,25.695,7.688c7.069,5.124,11.389,11.032,12.954,17.724c1.567,6.691,2.349,18.911,2.349,36.658v101.504
		c0,15.882-12.875,28.756-28.756,28.756h0c-15.882,0-28.756-12.875-28.756-28.756V412.093c0-11.009-0.547-18.08-1.638-21.212
		c-1.092-3.132-3.536-4.698-7.331-4.698c-3.513,0-5.887,1.615-7.119,4.84c-1.234,3.228-1.849,9.634-1.849,19.219v106.059
		c0,15.882-12.875,28.756-28.756,28.756h-0.001c-15.882,0-28.756-12.875-28.756-28.756V343.333
		c0-15.882,12.875-28.757,28.757-28.757h0C672.675,314.576,685.55,327.451,685.55,343.333z"/>
</g>
</svg>
