<?xml version="1.0" encoding="utf-8"?>
<!-- Generator: Adobe Illustrator 27.8.1, SVG Export Plug-In . SVG Version: 6.00 Build 0)  -->
<svg version="1.1" id="Layer_1" xmlns="http://www.w3.org/2000/svg" xmlns:xlink="http://www.w3.org/1999/xlink" x="0px" y="0px"
	 viewBox="0 0 1145 1040" enable-background="new 0 0 1145 1040" xml:space="preserve">
<g>
	<path fill="#1F2A50" d="M908.782,919.216c-0.434,2.333-0.598,4.737-0.557,7.101c0.091,5.52,1.097,10.996,1.241,16.513
		c0.319,12.251-7.223,21.584-3.571,34.303c1.67,5.812,7.934,16.753,14.929,16.597c6.964-0.156,11.258-7.713,13.264-13.326
		c3.045-8.517,5.961-16.3,10.274-24.349c2.083-3.888,4.113-7.886,5.76-11.994c-15.073-6.686-28.536-14.593-38.136-22.083
		C910.848,921.09,909.787,920.166,908.782,919.216z"/>
	<path fill="#1F2A50" d="M1064.391,934.426c1.692,1.814,3.338,3.674,5.064,5.455c4.92,5.081,11.238,10.439,18.159,9.021
		c5.736-1.176,9.652-6.981,10.274-12.798c0.619-5.822-1.409-11.598-3.919-16.89c-6.093-12.868-15.104-24.056-25.061-34.133
		c0.286,2.813,0.564,5.632,0.77,8.462C1070.676,907.101,1069.651,922.196,1064.391,934.426z"/>
	<path fill="#1F2A50" d="M1071.732,973.339c-1.975-11.159-6.024-21.778-11.094-31.877c-3.309,5.083-7.619,9.364-13.23,12.335
		c-5.498,2.911-11.709,4.749-18.378,5.726c4.207,9.251,8.711,18.371,13.607,27.281c3.398,6.199,8.08,13.033,15.131,13.492
		c5.844,0.379,11.152-4.185,13.288-9.633C1073.191,985.211,1072.757,979.106,1071.732,973.339z"/>
	<path fill="#1F2A50" d="M985.6,956.271c0.194,0.919,0.391,1.833,0.6,2.745c2.465,11.039,5.395,21.978,8.779,32.774
		c2.112,6.743,5.352,14.368,12.177,16.208c5.649,1.524,11.759-1.903,14.924-6.828c3.168-4.92,3.948-10.994,4.082-16.847
		c0.19-8.155-0.749-16.242-2.385-24.202C1011.878,961.042,998.756,959.458,985.6,956.271z"/>
	<path fill="#EAF1E4" d="M889.329,626.737c1.668,13.405,1.308,27.065-1.185,40.343c-2.395,12.765-5.433,25.647-5.032,38.721
		c0.698,22.923,13.396,48.368,22.671,69.016c2.443,5.438,4.999,10.874,7.682,16.28c19.537,39.357,45.755,77.087,82.712,101.299
		c9.316,6.086,19.635,11.39,30.749,11.922c11.745,0.564,23.228-4.334,32.659-11.358c2.333-1.74,5.539-5.421,9.167-9.551
		c-11.853-110.843-83.315-210.779-171.383-276.385c-2.318-1.728-4.948-3.655-7.771-5.599
		C891.33,609.478,890.889,618.221,889.329,626.737z"/>
	<path fill="#C5C8D5" d="M1060.638,941.462c1.44-2.203,2.685-4.555,3.753-7.036c5.26-12.229,6.285-27.324,5.287-40.883
		c-0.206-2.829-0.485-5.649-0.77-8.462c-0.055-0.559-0.094-1.116-0.156-1.67c-3.629,4.13-6.835,7.811-9.167,9.551
		c-9.431,7.024-20.914,11.922-32.659,11.358c-11.114-0.533-21.433-5.836-30.749-11.922c-36.957-24.212-63.175-61.942-82.712-101.299
		c-2.683-5.407-5.239-10.842-7.682-16.28c-9.275-20.648-21.973-46.093-22.671-69.016c-0.401-13.074,2.637-25.956,5.032-38.721
		c2.493-13.278,2.853-26.938,1.185-40.343c-0.065,0.36-0.125,0.725-0.197,1.085c-0.706,3.626-1.603,7.209-2.625,10.667
		c-0.475,1.61-0.994,3.206-1.509,4.807c0.305,2.395,0.355,4.816,0.137,7.156c-0.924,9.983-5.467,19.201-8.827,28.644
		c-5.599,15.733-7.255,31.728-6.722,47.78c0.744,22.299,5.712,44.714,10.197,66.674c13.185,64.522,48.976,125.021,103.785,162.211
		c0.677,0.173,1.356,0.346,2.033,0.509c13.156,3.187,26.278,4.771,38.176,3.852c1.783-0.139,3.528-0.348,5.253-0.6
		c6.669-0.977,12.88-2.815,18.378-5.726C1053.018,950.826,1057.328,946.545,1060.638,941.462z"/>
	<path fill="#9FA7C1" d="M879.782,793.552c-4.485-21.961-9.453-44.375-10.197-66.674c-0.533-16.052,1.123-32.047,6.722-47.78
		c3.36-9.443,7.903-18.661,8.827-28.644c0.218-2.34,0.168-4.761-0.137-7.156c-9.095,28.059-24.579,54.02-44.92,75.374
		c-2.153,9.849-4.608,19.64-7.303,29.379c10.372,17.701,19.87,35.913,28.447,54.548c0.298,0.655,0.6,1.308,0.9,1.963
		c9.554,20.955,17.946,42.441,25.117,64.322c5.968,18.207,7.55,37.106,21.543,50.334c1.006,0.95,2.066,1.874,3.204,2.762
		c9.599,7.49,23.062,15.397,38.136,22.083c10.607,4.706,22.014,8.788,33.446,11.702
		C928.758,918.573,892.967,858.073,879.782,793.552z"/>
	<path fill="#203973" d="M851.733,572.449c5.481,13.895,8.642,28.707,9.314,43.631c0.144,3.247,0.211,6.65,1.8,9.491
		c1.305,2.337,3.993,3.648,7.18,4.279c5.791,1.142,13.24,0.048,17.092-1.171c0.677-0.216,1.344-0.518,2.013-0.857
		c0.072-0.36,0.132-0.725,0.197-1.085c1.56-8.517,2.001-17.259,0.269-25.311c-1.19-5.515-3.384-10.713-6.935-15.277
		c-7.252-9.309-19.215-14.008-31.087-13.861c0.01,0.139,0.019,0.281,0.024,0.418C851.647,572.622,851.69,572.535,851.733,572.449z"
		/>
	<path fill="#1F2A50" d="M870.027,629.85c-3.187-0.631-5.875-1.941-7.18-4.279c-1.589-2.841-1.656-6.244-1.8-9.491
		c-0.672-14.924-3.833-29.736-9.314-43.631c-0.043,0.086-0.086,0.173-0.134,0.257c0.226,3.811,0.442,7.619,0.583,11.433
		c0.554,15.064,0.454,30.147-0.276,45.205c-0.612,12.616-1.625,25.21-3.127,37.761c-2.064,17.288-4.98,34.502-8.702,51.565
		c20.341-21.354,35.825-47.315,44.92-75.374c0.516-1.601,1.034-3.197,1.509-4.807c1.022-3.458,1.92-7.041,2.625-10.667
		c-0.67,0.338-1.337,0.641-2.013,0.857C883.267,629.898,875.818,630.992,870.027,629.85z"/>
	<path fill="#1F2A50" d="M233.398,921.978c-9.599,7.49-23.062,15.397-38.133,22.083c1.644,4.108,3.676,8.107,5.757,11.994
		c4.313,8.049,7.228,15.832,10.274,24.349c2.006,5.613,6.3,13.17,13.266,13.326c6.995,0.156,13.259-10.785,14.927-16.597
		c3.65-12.719-3.89-22.052-3.571-34.303c0.146-5.517,1.15-10.994,1.243-16.513c0.038-2.364-0.125-4.768-0.559-7.101
		C235.596,920.166,234.538,921.09,233.398,921.978z"/>
	<path fill="#1F2A50" d="M75.706,893.542c0.209-2.829,0.487-5.649,0.773-8.462c-9.957,10.077-18.968,21.265-25.064,34.133
		c-2.508,5.292-4.538,11.068-3.917,16.89c0.619,5.817,4.538,11.622,10.271,12.798c6.926,1.418,13.242-3.94,18.159-9.021
		c1.725-1.781,3.372-3.64,5.064-5.455C75.732,922.196,74.71,907.101,75.706,893.542z"/>
	<path fill="#1F2A50" d="M84.746,941.462c-5.066,10.098-9.117,20.718-11.094,31.877c-1.022,5.767-1.457,11.872,0.679,17.324
		c2.133,5.448,7.444,10.012,13.285,9.633c7.053-0.458,11.733-7.293,15.136-13.492c4.891-8.911,9.398-18.03,13.607-27.281
		c-6.672-0.977-12.885-2.815-18.38-5.726C92.365,950.826,88.057,946.545,84.746,941.462z"/>
	<path fill="#1F2A50" d="M121.607,960.123c-1.637,7.96-2.573,16.048-2.385,24.202c0.137,5.853,0.914,11.927,4.082,16.847
		c3.168,4.924,9.275,8.351,14.925,6.828c6.825-1.841,10.065-9.465,12.177-16.208c3.384-10.797,6.314-21.735,8.783-32.774
		c0.204-0.912,0.401-1.826,0.598-2.745C146.63,959.458,133.508,961.042,121.607,960.123z"/>
	<path fill="#EAF1E4" d="M87.673,893.043c9.429,7.027,20.914,11.925,32.659,11.361c11.114-0.533,21.435-5.836,30.749-11.925
		c36.955-24.212,63.173-61.937,82.712-101.294c2.683-5.407,5.241-10.842,7.682-16.28c9.275-20.648,21.97-46.093,22.671-69.019
		c0.401-13.074-2.637-25.956-5.035-38.719c-2.124-11.318-2.669-22.909-1.766-34.387c-2.527-10.346-3.701-21.38-1.557-31.354
		c-2.825,1.944-5.452,3.871-7.771,5.599C160.424,672.276,89.269,771.485,76.838,881.61
		C81.153,886.477,84.993,891.047,87.673,893.043z"/>
	<path fill="#C5C8D5" d="M267.475,793.638c4.488-21.966,9.455-44.375,10.197-66.679c0.533-16.05-1.123-32.045-6.722-47.778
		c-3.362-9.443-7.903-18.666-8.829-28.644c-0.077-0.84-0.12-1.687-0.134-2.537c-1.109-3.146-2.162-6.312-3.11-9.51
		c-0.499-1.692-0.96-3.422-1.394-5.164c-0.046-0.18-0.091-0.36-0.137-0.545c-0.902,11.478-0.358,23.07,1.766,34.387
		c2.397,12.762,5.436,25.644,5.035,38.719c-0.701,22.925-13.396,48.371-22.671,69.019c-2.441,5.438-4.999,10.874-7.682,16.28
		c-19.539,39.357-45.757,77.082-82.712,101.294c-9.314,6.088-19.635,11.392-30.749,11.925c-11.745,0.564-23.23-4.334-32.659-11.361
		c-2.681-1.997-6.52-6.566-10.835-11.433c-0.132,1.154-0.242,2.311-0.36,3.47c-0.286,2.813-0.564,5.632-0.773,8.462
		c-0.996,13.559,0.026,28.654,5.287,40.883c1.068,2.481,2.316,4.833,3.753,7.036c3.312,5.083,7.619,9.364,13.233,12.335
		c5.496,2.911,11.709,4.749,18.38,5.726c1.721,0.252,3.465,0.461,5.248,0.6c11.901,0.919,25.023-0.665,38.179-3.852
		c1.759-0.43,3.516-0.886,5.272-1.365C219.092,917.639,254.403,857.617,267.475,793.638z"/>
	<path fill="#9FA7C1" d="M261.987,648c0.014,0.849,0.058,1.697,0.134,2.537c0.926,9.978,5.467,19.201,8.829,28.644
		c5.599,15.733,7.255,31.728,6.722,47.778c-0.742,22.304-5.709,44.714-10.197,66.679c-13.072,63.979-48.383,124.001-102.417,161.268
		c10.341-2.837,20.6-6.588,30.207-10.845c15.071-6.686,28.534-14.593,38.133-22.083c1.14-0.888,2.198-1.812,3.204-2.762
		c13.996-13.228,15.58-32.126,21.543-50.334c7.168-21.882,15.565-43.367,25.119-64.322c0.298-0.655,0.6-1.308,0.9-1.963
		c8.039-17.471,16.936-34.545,26.556-51.198c-3.437-12.117-6.412-24.337-8.999-36.628C284.255,695.416,270.657,672.584,261.987,648z
		"/>
	<path fill="#203973" d="M257.346,632.78c0.046,0.185,0.091,0.365,0.137,0.545c1.209,0.478,2.549,0.691,3.852,0.622
		c3.941-0.216,9.446-2.292,13.494-5.232c1.917-1.392,3.506-2.981,4.449-4.653c1.332-2.373,1.646-5.157,2.011-7.85
		c1.596-11.786,4.711-23.357,9.189-34.377c0.13-3.168,0.353-6.328,0.542-9.494c-10.926,0.569-21.615,5.229-28.296,13.809
		c-3.554,4.564-5.748,9.758-6.935,15.277C253.645,611.4,254.819,622.435,257.346,632.78z"/>
	<path fill="#1F2A50" d="M290.367,586.128c0.046-1.428,0.05-2.863,0.11-4.293c-4.478,11.02-7.593,22.592-9.189,34.377
		c-0.365,2.693-0.679,5.476-2.011,7.85c-0.943,1.673-2.532,3.261-4.449,4.653c-4.049,2.94-9.554,5.016-13.494,5.232
		c-1.303,0.07-2.642-0.144-3.852-0.622c0.434,1.742,0.895,3.473,1.394,5.164c0.948,3.199,2.001,6.364,3.11,9.51
		c8.671,24.584,22.268,47.416,39.734,66.77c-1.932-9.16-3.626-18.356-5.08-27.591c-1.054-6.679-2.021-13.369-2.822-20.075
		C290.607,640.229,289.472,613.152,290.367,586.128z"/>
	<path fill="#1F2A50" d="M419.806,939.727c1.318,2.505,2.683,4.987,4.152,7.416c33.223,31.771,75.39,54.114,120.373,63.653
		c27.317,5.796,55.599,6.859,83.286,3.314c17.13-4.74,33.47-11.97,48.292-21.944c19.587-13.17,35.928-31.541,46.912-52.451
		C654.924,965.023,487.733,965.026,419.806,939.727z"/>
	<path fill="#EAF1E4" d="M852.182,584.138c-35.349,15.911-72.633,27.859-110.716,36.074c-24.533,5.292-49.417,9.074-74.447,11.416
		c-58.661,5.481-118.633,2.52-177.097-4.252c-69.388-8.042-135.789-17.6-199.555-41.248c-0.895,27.024,0.24,54.102,3.451,80.977
		c0.802,6.705,1.769,13.396,2.822,20.075c27.466,21.591,55.577,42.366,86.154,59.172c79.746,43.83,189.202,64.025,278.948,40.886
		c1.13-0.293,2.261-0.59,3.386-0.898c41.603-11.298,86.816-54.534,117.985-82.861c24.975-22.702,47.992-47.552,68.793-74.135
		C852.636,614.285,852.736,599.202,852.182,584.138z"/>
	<path fill="#C5C8D5" d="M515.113,916.36c-50.627-5.107-100.656-16.609-148.345-34.368c8.327,14.094,17.269,27.884,26.892,41.279
		c4.553,6.338,13.698,11.817,26.146,16.456c67.927,25.299,235.118,25.297,303.013-0.012c12.436-4.636,21.57-10.11,26.12-16.444
		c8.877-12.354,17.147-25.061,24.92-38.013c-7.574,2.678-15.186,5.256-22.868,7.622C674.943,916.3,594.283,924.351,515.113,916.36z"
		/>
	<path fill="#C5C8D5" d="M848.779,667.105c1.502-12.551,2.515-25.145,3.127-37.761c-20.802,26.583-43.818,51.433-68.793,74.135
		c-31.169,28.327-76.382,71.563-117.985,82.861c-1.126,0.307-2.256,0.605-3.386,0.898c-89.746,23.139-199.202,2.945-278.948-40.886
		c-30.576-16.806-58.688-37.581-86.154-59.172c1.454,9.235,3.149,18.431,5.08,27.591c2.587,12.292,5.563,24.512,8.999,36.628
		c12.46,43.938,30.461,86.562,53.708,126.655c16.285,6.175,32.842,11.646,49.626,16.34c75.928,21.238,155.912,27.269,234.158,17.569
		c43.571-5.4,86.619-15.599,127.946-30.511c24.812-42.093,43.78-87.037,56.617-133.404c2.695-9.738,5.15-19.53,7.303-29.379
		C843.799,701.607,846.715,684.393,848.779,667.105z"/>
	<path fill="#203973" d="M648.212,911.963c-78.246,9.7-158.23,3.669-234.158-17.569c-16.784-4.694-33.341-10.166-49.626-16.34
		c0.766,1.318,1.562,2.625,2.34,3.938c47.689,17.759,97.718,29.261,148.345,34.368c79.17,7.991,159.83-0.06,235.878-23.48
		c7.682-2.366,15.294-4.944,22.868-7.622c0.766-1.27,1.548-2.529,2.299-3.806C734.831,896.365,691.783,906.564,648.212,911.963z"/>
	<path fill="#9FA7C1" d="M290.367,586.128c63.766,23.648,130.166,33.206,199.555,41.248c58.464,6.772,118.436,9.734,177.097,4.252
		c25.03-2.342,49.914-6.124,74.447-11.416c38.083-8.215,75.366-20.163,110.716-36.074c-0.142-3.813-0.358-7.622-0.583-11.433
		c-0.005-0.137-0.014-0.278-0.024-0.418c-0.206-3.47-0.413-6.94-0.686-10.408c-90.106,8.805-469.076,8.805-559.175,0
		c-0.278,3.485-0.487,6.971-0.694,10.461c-0.19,3.165-0.413,6.326-0.542,9.494C290.417,583.265,290.413,584.7,290.367,586.128z"/>
	<path fill="#203973" d="M172.114,287.909c3.115-13.597,7.929-36.724,8.87-39.988c4.658-16.172,10.209-32.11,16.708-47.636
		c1.135-2.709,2.558-6.561,4.296-10.672c5.865-20.202,12.923-39.952,21.085-58.988c0.914-2.129,1.838-4.255,2.772-6.379
		c-15.241,3.309-28.246,7.437-33.485,11.817c-8.2,6.856-13.629,15.858-18.546,24.841c-21.006,38.39-32.46,78.244-35.534,118.352
		c7.317,5.124,14.958,9.784,22.93,13.813C165.644,295.308,171.005,292.75,172.114,287.909z"/>
	<path fill="#203973" d="M968.784,160.903c-4.915-8.983-10.341-17.984-18.546-24.841c-5.244-4.384-18.265-8.515-33.521-11.824
		c0.953,2.117,1.891,4.243,2.808,6.386c12.206,28.457,21.975,58.5,28.891,89.292c2.976,4.351,5.877,7.444,7.732,12.657
		c4.555,12.808,8.383,25.728,13.067,38.44c1.433,3.888,2.945,7.754,4.584,11.591c11.37-4.761,20.948-11.366,28.798-19.729
		C997.945,228.314,986.93,194.062,968.784,160.903z"/>
	<path fill="#1F2A50" d="M1005.204,301.168c-0.014-12.781-0.893-25.556-2.606-38.292c-7.85,8.363-17.427,14.968-28.798,19.729
		c-1.639-3.837-3.151-7.703-4.584-11.591c-4.684-12.712-8.512-25.633-13.067-38.44c-1.855-5.212-4.756-8.306-7.732-12.657
		c5.836,25.978,9.63,52.489,11.123,79.033c2.486,44.353-1.452,88.801-13.089,131.009c-4.845,17.576-11.522,36.427-20.197,54.666
		c16.244-4.543,30.286-9.906,35.532-14.948c7.708-7.406,12.503-16.763,16.784-26.064
		C1000.201,396.631,1008.43,348.524,1005.204,301.168z"/>
	<path fill="#1F2A50" d="M182.505,312.834c1.061-41.586,7.895-83.298,19.482-123.221c-1.738,4.111-3.161,7.963-4.296,10.672
		c-6.499,15.527-12.05,31.464-16.708,47.636c-0.941,3.264-5.755,26.391-8.87,39.988c-1.109,4.84-6.47,7.399-10.905,5.16
		c-7.972-4.029-15.613-8.69-22.93-13.813c-0.559,7.3-0.873,14.605-0.883,21.913c-3.228,47.356,5.004,95.462,26.633,142.444
		c4.281,9.302,9.076,18.659,16.782,26.064c5.246,5.042,19.29,10.406,35.537,14.948c-8.678-18.239-15.354-37.089-20.199-54.666
		C185.728,392.155,181.494,352.553,182.505,312.834z"/>
	<path fill="#EAF1E4" d="M948.417,219.917c-6.916-30.792-16.686-60.835-28.891-89.292c-0.917-2.143-1.855-4.269-2.808-6.386
		c-12.57-27.989-28.243-53.737-53.502-73.048c-44.665-34.142-533.641-33.029-583.831,0c-26.573,17.487-41.131,44.824-53.542,73.055
		c-0.934,2.124-1.857,4.25-2.772,6.379c-8.162,19.035-15.22,38.786-21.085,58.988c-11.586,39.923-18.421,81.635-19.482,123.221
		c7.814,9.059,16.34,17.507,25.45,25.253c13.072,11.118,29.074,28.575,46.588,16.48c13.725-9.477,11.025-26.609,12.33-41.255
		c1.378-15.457,2.935-31.109,6.554-46.23c2.145-8.973,4.713-17.859,7.677-26.609c7.005-36.139,21.584-70.456,47.209-97.473
		c6.626-6.986,126.183-9.501,242.987-8.906c116.804-0.595,236.361,1.92,242.987,8.906c21.61,22.784,35.349,50.768,43.336,80.648
		c1.939,3.907,3.773,7.864,5.457,11.886c6.201,14.826,10.127,29.417,12.268,45.268l6.928,51.426
		c1.193,8.829,10.533,14.118,18.663,10.48c16.206-7.25,31.378-16.307,44.464-28.339c5.397-4.963,10.055-10.113,14.137-15.417
		C958.048,272.406,954.254,245.896,948.417,219.917z"/>
	<path fill="#C5C8D5" d="M959.54,298.951c-4.082,5.304-8.74,10.454-14.137,15.417c-13.086,12.033-28.258,21.09-44.464,28.339
		c-8.131,3.638-17.471-1.651-18.663-10.48l-6.928-51.426c-2.141-15.851-6.067-30.442-12.268-45.268
		c-1.685-4.022-3.518-7.979-5.457-11.886c5.301,19.849,8.075,40.531,8.884,61.099c2.066,11.102,3.338,22.446,3.78,33.83
		c1.735,44.881-11.01,150.289-38.882,163.62c-31.265,14.951-463.048,0.643-494.07-1.901c-25.779-2.114-34.365-15.784-42.052-40.384
		c-6.623-21.21-10.602-43.727-11.721-66.353c-8.143-40.118-11.198-88.011-2.457-133.087c-2.964,8.75-5.532,17.636-7.677,26.609
		c-3.619,15.121-5.176,30.773-6.554,46.23c-1.306,14.646,1.394,31.778-12.33,41.255c-17.514,12.095-33.516-5.361-46.588-16.48
		c-9.11-7.747-17.636-16.194-25.45-25.253c-1.01,39.719,3.223,79.321,13.643,117.126c4.845,17.576,11.522,36.427,20.199,54.666
		c13.588,28.565,32.124,55.616,56.518,73.804c1.706,1.269,8.303,2.421,18.848,3.451c90.099,8.805,469.069,8.805,559.175,0
		c10.542-1.03,17.142-2.181,18.846-3.451c24.394-18.188,42.928-45.239,56.521-73.804c8.675-18.239,15.352-37.089,20.197-54.666
		C958.088,387.751,962.027,343.304,959.54,298.951z"/>
	<path fill="#9FA7C1" d="M819.525,465.88c-7.404,4.37-129.192,6.501-248.226,6.395c-119.034,0.106-240.824-2.025-248.226-6.395
		c-12.805-7.564-29.784-44.387-39.513-92.321c1.118,22.626,5.097,45.143,11.721,66.353c7.687,24.601,16.273,38.27,42.052,40.384
		c31.022,2.544,462.805,16.852,494.07,1.901c27.872-13.331,40.617-118.738,38.882-163.62c-0.442-11.385-1.714-22.729-3.78-33.83
		C869.895,370.446,839.581,454.034,819.525,465.88z"/>
	<path fill="#1F2A50" d="M866.507,284.746c-0.809-20.569-3.583-41.251-8.884-61.099c-7.987-29.88-21.726-57.864-43.336-80.648
		c-6.626-6.986-126.183-9.501-242.987-8.906c-116.804-0.595-236.361,1.92-242.987,8.906c-25.625,27.017-40.204,61.335-47.209,97.473
		c-8.74,45.076-5.685,92.969,2.457,133.087c9.729,47.934,26.708,84.757,39.513,92.321c7.401,4.37,129.192,6.501,248.226,6.395
		c119.034,0.106,240.822-2.025,248.226-6.395C839.581,454.034,869.895,370.446,866.507,284.746z"/>
	<path fill="#203973" d="M323.098,276.956c-3.772,18.947-6.844,39.055-0.228,57.204c10.617,29.112,42.458,31.562,69.148,30.456
		c1.046-0.043,2.1-0.103,3.146-0.146c-4.255-8.164-6.472-17.569-7.031-26.554c-1.382-22.16,1.032-107.687,12.193-119.818
		c16.28-17.691,51.392-17.879,67.841,0c11.162,12.136,13.576,97.658,12.193,119.818c-0.451,7.226-1.977,14.716-4.766,21.62
		c40.576-3.288,81.215-7.871,121.285-14.269c21.819-3.485,43.54-7.569,65.148-12.182c-0.838-27.672,1.937-103.61,12.405-114.987
		c16.28-17.691,51.39-17.879,67.841,0c7.977,8.673,11.483,54.819,12.335,88.541c10.391-5.056,20.25-11.44,29.494-19.991
		c18.944-17.531,34.591-46.005,22.117-71.642c-7.07-14.543-20.708-25.064-35.539-31.51c-14.828-6.444-30.943-9.251-46.897-11.862
		c-105.482-17.267-214.055-28.308-318.759-6.818c-13.041,2.676-27.475,5.623-39.143,12.345c-10.283,5.925-15.486,17.106-20.67,27.66
		C334.075,227.498,328.008,252.298,323.098,276.956z"/>
	<path fill="#3DBEEE" d="M468.167,218.098c-16.448-17.879-51.56-17.691-67.841,0c-11.162,12.131-13.576,97.658-12.193,119.818
		c0.559,8.985,2.777,18.39,7.031,26.554c3.379,6.489,8.044,12.201,14.202,16.29c13.36,8.875,35.971,9.16,49.76,0
		c7.675-5.1,13.031-12.714,16.468-21.224c2.789-6.904,4.315-14.394,4.766-21.62C481.743,315.757,479.329,230.234,468.167,218.098z"
		/>
	<path fill="#3DBEEE" d="M674.432,218.098c-10.468,11.378-13.242,87.315-12.405,114.987c0.055,1.831,0.127,3.456,0.214,4.831
		c1.003,16.129,7.329,33.609,21.231,42.844c13.357,8.875,35.969,9.16,49.758,0c13.907-9.235,20.231-26.715,21.236-42.844
		c0.394-6.321,0.48-17.814,0.142-31.277c-0.852-33.722-4.358-79.868-12.335-88.541C725.822,200.22,690.712,200.407,674.432,218.098z
		"/>
	<path fill="#203973" d="M544.331,1010.795c-44.982-9.539-87.149-31.882-120.373-63.653c10.773,17.823,25.496,33.429,42.736,45.023
		c30.554,20.557,67.581,29.465,104.601,28.98c19.071,0.25,38.138-1.994,56.321-7.036
		C599.93,1017.654,571.648,1016.591,544.331,1010.795z"/>
</g>
</svg>
